/* XPM */
static const char *AnimatorFrm_BStop_XPM[]={
/* AnimatorFrm_BStop */
"41 41 409 2",
"      c None",
" 0    c #DFE1E2",
" 1    c #DFE0E2",
" 2    c #E0E1E2",
" 3    c #B8BABC",
" 4    c #AAADAF",
" 5    c #A2A4A7",
" 6    c #A2A5A7",
" 7    c #A3A5A7",
" 8    c #BDBFC1",
" 9    c #CACBCD",
" a    c #DFE0E1",
" b    c #DCDDDF",
" c    c #D3D4D6",
" d    c #B1B3B5",
" e    c #909295",
" f    c #76787B",
" g    c #77797B",
" h    c #77787B",
" i    c #76787A",
" j    c #838587",
" k    c #9DA0A2",
" l    c #C0C2C4",
" m    c #DCDDDE",
" n    c #D9DADC",
" o    c #CDCFD0",
" p    c #A9ABAE",
" q    c #898B8D",
" r    c #8A8C8E",
" s    c #898B8E",
" t    c #949698",
" u    c #BABCBE",
" v    c #DADBDC",
" w    c #D6D7D8",
" x    c #BCBEC0",
" y    c #9D9FA1",
" z    c #9C9EA1",
" A    c #9C9EA0",
" B    c #9C9FA1",
" C    c #ACAEB0",
" D    c #CBCCCE",
" E    c #D2D4D5",
" F    c #CFD1D3",
" G    c #B7B9BB",
" H    c #B0B2B5",
" I    c #B0B2B4",
" J    c #ADB0B2",
" K    c #A6A8AB",
" L    c #A0A2A4",
" M    c #9B9DA0",
" N    c #625E5D",
" O    c #625D5D",
" P    c #7A7979",
" Q    c #9EA1A3",
" R    c #A1A4A6",
" S    c #A9ACAE",
" T    c #C8C9CB",
" U    c #D0D1D3",
" V    c #CFD1D2",
" W    c #C5C7C9",
" X    c #C4C6C8",
" Y    c #B4B6B9",
" Z    c #868484",
" &    c #403A38",
"0     c #0B0300",
"00    c #000000",
"01    c #221C1A",
"02    c #5A5453",
"03    c #AFB1B4",
"04    c #C2C3C6",
"05    c #C5C6C8",
"06    c #CCCED0",
"07    c #D2D3D5",
"08    c #D9DADB",
"09    c #D8DADB",
"0a    c #D8D9DB",
"0b    c #CCCDCF",
"0c    c #7C7878",
"0d    c #191210",
"0e    c #514B49",
"0f    c #D6D8D9",
"0g    c #C9CBCC",
"0h    c #CED0D2",
"0i    c #E1E2E3",
"0j    c #B2B0B1",
"0k    c #312B29",
"0l    c #020000",
"0m    c #84807F",
"0n    c #D6D7D9",
"0o    c #C6C8CA",
"0p    c #C7C8CA",
"0q    c #C9CACC",
"0r    c #C9CBCD",
"0s    c #C8CACC",
"0t    c #A9A8A9",
"0u    c #060000",
"0v    c #070000",
"0w    c #040000",
"0x    c #585250",
"0y    c #C7C9CB",
"0z    c #C4C5C7",
"0A    c #050000",
"0B    c #0C0302",
"0C    c #100706",
"0D    c #120A08",
"0E    c #130B09",
"0F    c #140D0B",
"0G    c #120908",
"0H    c #0F0604",
"0I    c #0A0100",
"0J    c #5A5452",
"0K    c #B5B7B9",
"0L    c #B3B5B8",
"0M    c #989A9D",
"0N    c #9B9A9B",
"0O    c #0D0403",
"0P    c #17100F",
"0Q    c #1A1413",
"0R    c #1D1716",
"0S    c #1D1717",
"0T    c #1C1615",
"0U    c #191312",
"0V    c #170F0E",
"0W    c #110907",
"0X    c #030000",
"0Y    c #655F5E",
"0Z    c #999B9D",
"0&    c #BFC1C3",
"1     c #8F9194",
"10    c #828386",
"11    c #828486",
"12    c #909294",
"13    c #1D1614",
"14    c #110806",
"15    c #1C1616",
"16    c #1F1A19",
"17    c #231E1D",
"18    c #252020",
"19    c #262121",
"1a    c #25201F",
"1b    c #221D1D",
"1c    c #1F1918",
"1d    c #150D0C",
"1e    c #0E0504",
"1f    c #828080",
"1g    c #828487",
"1h    c #B3B5B7",
"1i    c #A8AAAC",
"1j    c #6B6C6E",
"1k    c #6B6C6F",
"1l    c #6F7173",
"1m    c #615D5D",
"1n    c #090000",
"1o    c #231E1E",
"1p    c #272222",
"1q    c #2A2626",
"1r    c #2B2727",
"1s    c #2E2A2A",
"1t    c #2D2929",
"1u    c #292424",
"1v    c #1E1817",
"1w    c #100805",
"1x    c #808285",
"1y    c #6B6D6F",
"1z    c #87898C",
"1A    c #B9BBBD",
"1B    c #B6B8BA",
"1C    c #7A7C7F",
"1D    c #565658",
"1E    c #555658",
"1F    c #737577",
"1G    c #110807",
"1H    c #1A1312",
"1I    c #201B1A",
"1J    c #262120",
"1K    c #2D2A2A",
"1L    c #312D2E",
"1M    c #333030",
"1N    c #343131",
"1O    c #353232",
"1P    c #332F30",
"1Q    c #302D2D",
"1R    c #1D1817",
"1S    c #5B5756",
"1T    c #6C6E70",
"1U    c #67686B",
"1V    c #67696B",
"1W    c #68696B",
"1X    c #555151",
"1Y    c #0E0403",
"1Z    c #6F6B6B",
"1&    c #8A8888",
"2     c #8D8B8B",
"20    c #908E8F",
"21    c #919091",
"22    c #929192",
"23    c #929191",
"24    c #929091",
"25    c #908F90",
"26    c #8F8E8E",
"27    c #8C8A8A",
"28    c #898787",
"29    c #423E3E",
"2a    c #0B0200",
"2b    c #160F0C",
"2c    c #727476",
"2d    c #959799",
"2e    c #A5A7AA",
"2f    c #7E8082",
"2g    c #7E7F82",
"2h    c #818385",
"2i    c #1E1816",
"2j    c #080000",
"2k    c #140C0B",
"2l    c #BEBCBC",
"2m    c #5D5A5A",
"2n    c #282424",
"2o    c #7A7A7B",
"2p    c #7E8083",
"2q    c #8E9092",
"2r    c #A3A5A8",
"2s    c #949699",
"2t    c #181110",
"2u    c #282323",
"2v    c #2E2B2B",
"2w    c #C0BEBF",
"2x    c #605D5D",
"2y    c #2C2828",
"2z    c #4B4644",
"2A    c #ACAEB1",
"2B    c #ADAFB2",
"2C    c #797675",
"2D    c #312E2E",
"2E    c #C2C1C1",
"2F    c #636162",
"2G    c #302C2C",
"2H    c #292525",
"2I    c #211C1C",
"2J    c #0E0503",
"2K    c #332D2B",
"2L    c #ADAFB1",
"2M    c #ACAFB1",
"2N    c #BBBDBF",
"2O    c #C3C5C7",
"2P    c #75706F",
"2Q    c #262221",
"2R    c #C3C2C2",
"2S    c #656364",
"2T    c #322F2F",
"2U    c #1B1514",
"2V    c #160F0D",
"2W    c #C1C2C5",
"2X    c #C3C4C7",
"2Y    c #AFB1B3",
"2Z    c #B4B6B8",
"2&    c #4A4341",
"3     c #150E0C",
"30    c #201A19",
"31    c #363333",
"32    c #C3C2C3",
"33    c #676566",
"34    c #333031",
"35    c #1C1716",
"36    c #120A09",
"37    c #A9ABAD",
"38    c #9D9FA2",
"39    c #36302E",
"3a    c #363334",
"3b    c #252120",
"3c    c #110906",
"3d    c #9FA1A4",
"3e    c #8D8F92",
"3f    c #87888B",
"3g    c #342F2D",
"3h    c #0A0000",
"3i    c #160E0D",
"3j    c #2F2B2B",
"3k    c #676667",
"3l    c #858789",
"3m    c #87898B",
"3n    c #96989B",
"3o    c #7D7F81",
"3p    c #727376",
"3q    c #444140",
"3r    c #343132",
"3s    c #241F1F",
"3t    c #010000",
"3u    c #717375",
"3v    c #919395",
"3w    c #7C7E80",
"3x    c #666769",
"3y    c #66676A",
"3z    c #5E5C5D",
"3A    c #C1C0C1",
"3B    c #646262",
"3C    c #302C2D",
"3D    c #231C1B",
"3E    c #656769",
"3F    c #979A9C",
"3G    c #6E7072",
"3H    c #6F7073",
"3I    c #818386",
"3J    c #191211",
"3K    c #211C1B",
"3L    c #C0BFBF",
"3M    c #615F5F",
"3N    c #160F0E",
"3O    c #484341",
"3P    c #6F7072",
"3Q    c #6E6F72",
"3R    c #737477",
"3S    c #8A8C8F",
"3T    c #78797C",
"3U    c #2A2421",
"3V    c #2B2626",
"3W    c #120907",
"3X    c #898889",
"3Y    c #818285",
"3Z    c #929497",
"3&    c #808184",
"4     c #808284",
"40    c #787372",
"41    c #0F0504",
"42    c #201A1A",
"43    c #706C6C",
"44    c #8B8889",
"45    c #8E8C8D",
"46    c #908F8F",
"47    c #939293",
"48    c #433F3F",
"49    c #322C2A",
"4a    c #888A8C",
"4b    c #8C8E91",
"4c    c #888A8D",
"4d    c #A4A6A9",
"4e    c #18110F",
"4f    c #1B1414",
"4g    c #353233",
"4h    c #1F1919",
"4i    c #0F0605",
"4j    c #7B7574",
"4k    c #8B8D8F",
"4l    c #8E9093",
"4m    c #777271",
"4n    c #0B0100",
"4o    c #130B0A",
"4p    c #272322",
"4q    c #241E1B",
"4r    c #A0A3A5",
"4s    c #86888A",
"4t    c #38322F",
"4u    c #272323",
"4v    c #282423",
"4w    c #231D1D",
"4x    c #9E9D9E",
"4y    c #86888B",
"4z    c #848689",
"4A    c #A5A7A9",
"4B    c #746F6E",
"4C    c #8F8E8F",
"4D    c #140C0A",
"4E    c #0D0402",
"4F    c #56504E",
"4G    c #8B8D90",
"4H    c #8A898B",
"4I    c #5E5958",
"4J    c #7D7F82",
"4K    c #7B7D7F",
"4L    c #7B7C7F",
"4M    c #7A7C7E",
"4N    c #7A7B7E",
"4O    c #797B7D",
"4P    c #797B7E",
"4Q    c #8F9193",
"4R    c #3D3735",
"4S    c #140D0A",
"4T    c #7E7C7C",
"4U    c #7F8184",
"4V    c #787A7C",
"4W    c #75777A",
"4X    c #76777A",
"4Y    c #888586",
"4Z    c #2F2927",
"4&    c #757779",
"5     c #747578",
"50    c #645D5B",
"51    c #292321",
"52    c #1D1715",
"53    c #4E4745",
"54    c #898584",
"55    c #727477",
"56    c #747678",
"57    c #AEB0B2",
"58    c #717275",
"59    c #787A7D",
"5a    c #797A7D",
"5b    c #6D6E71",
"5c    c #838487",
"5d    c #7B7D80",
"5e    c #707274",
"5f    c #6C6D70",
"5g    c #696A6D",
"5h    c #8D8F91",
"5i    c #686A6C",
"5j    c #7D7E81",
"5k    c #7C7E81",
"5l    c #757679",
"5m    c #656669",
"5n    c #66686A",
"                           0 1 2 3 4 5 6 5 7 5 8 9 a 1                            ",
"                       b c d e f g h f h h f i h h j k l m m                      ",
"                   n o p q q q q r s s s q s s r s q r s t u v                    ",
"                 w x y z A y z z A z A z z z A A z z z B A B C D w                ",
"             E F G H I I I H H J K L M N O P Q R S I H I I H I I T c              ",
"           U V W X W W W W Y Z &0 0000000000000001020304 X0505 W W D F            ",
"        060708090a08090b0c0d000000000000000000000000000e 809080808 n0f06          ",
"      0g0h a0i0i0i0i0j0k000000000000000000000000000000000l0m n0i0i0i0i0n 9        ",
"      0o0p0q0r0s0r0t0l0000000000000l0u0v0u0u0w0l0000000000000x0s0q0q0r0r0y W      ",
"    0z G H H I I0t0A00000000000v0B0C0D0E0F0D0G0H0I0A00000000000J0K H I I d l      ",
"    0L0M0M0M0M0N0A000000000u0O0D0P0Q0R0S0S0R0T0U0V0W0I0X000000000Y y0Z0Z0M K0&    ",
"   x1 1011111213000000000v140P151617181919181a1b1c0Q1d1e0u000000001f111g11111h    ",
"  1i1j1k1k1l1m000000001n0G0U161o1p1q1r1s1s1t1r1u191b1v0P0H0u0000001w1x1j1k1y1z1A  ",
"1B1C1D1E1D1F000000000u1G1H1I1J1q1K1L1M1N1O1N1P1Q1K1u1o1R0P1e0X0000001S1E1E1E1E C  ",
"1h1T1U1V1W1X0000000l1Y0P16191Z1&2 202122232425262728291o1R0F2a0000002b2c1V1W1U2d  ",
"2e2f2f2g2h2i0000002j2k0R1a1r2l                      2m2n1b0Q1G0A0000002o2p2p2g2q I",
"2r2s2s2d0Z0000000l1e2t1I2u2v2w                      2x2y191v1d0I0000002z2s2d2s0Z2A",
" C2A2B2B2C0000000u0W0T1a1r2D2E                      2F2G2H2I0U2J0000002K2L2A2L2M p",
"2N2O2O2O2P0000000v2k1v2Q1s1N2R                      2S2T1r1o2U0W0w00002V2W2O2X2O H",
"2Y0L0L2Z2&0000001n3 302u2v3132                      33342y1935360u00003  Y0L1h1h37",
"38 y3838390000002a2V302u2G3a2R                      331N1t3b0R360u00003c A y38 y3d",
"3e1z3f3f3g0000003h3i302u3j3a32                      3k341t18150D0u00002j3l3m1z1z3n",
"3o3p3p2c3q0000000v1d1v2Q1s3r2E                      2S1M1r3s2U1G0X00003t3u2c3p2c3v",
"3w3x3y3x3z0000000A360T181r1P3A                      3B3C1u1b1H2J3t00003D1V3E3E3x3F",
" j3G3G3H3I0000000l1e3J3K1u2G3L                      3M1s2Q163N2a0000003O3P3Q3G3R2s",
"3S g3T3T3I3U0000001n1d1v183V2l                      2m1u1b0Q3W0u0000003X g3T3T3Y3Z",
"3e3Y3&4 4 400000000w412t421p434445462322472221202 1&481a0S3N2a000000493n4 4 4 4a  ",
"4b r q q4c4d4e0000002j0D4f1I191r3j2D1N314g4g1M1Q1s1q184h2t4i0w0000004j q4c4c4c4k  ",
"   q4l3e3e2q4m000000004n4o0Q1I182u1r1s1s3j1s1t1r4p171c2t1G0u0000004q4r3e3e2q4b s  ",
"  4s s3S r3S0M4t000000000I0D2t1R1I1a3b4u4v1p194w420T0P0C0u000000004x3S3S r s4y    ",
"    4z4s3f4s4s4A0A000000000v0H0F3J0T1R1c161c0R0Q2t0D1Y0A000000004B q4y4y4s4z j    ",
"    4 3I111g3I1g4C0A000000000X3h1Y0W2k1d1d0F4D1G4E0v00000000004F4G111111113Y      ",
"      3o2f2f2p2p2f4H3c00000000000l0A0v1n1n2j0u0w0000000000004I1z2f2p2p2g4J2f      ",
"        4K4L4M4N4O4P4Q4R000000000000000000000000000000004S4T4U4P4M4N4M4M4K        ",
"        4V g i i4W4X4W1g4Y4Z0000000000000000000000000 0J2s4X4X4X i i g g          ",
"          4&5 3p2c3p2c2c3p q0N50510000000000005253542d g552c3R3p3R3R56            ",
"            3R3u3H3P3H3H1l1l3H1l4b2e57 9 c2B2B2d2p3H3H3H1l3P3P3H583p              ",
"                3Q3p g4V3T59594V594V59594V5a4V594V4V4V5a3T3T5 1l1l                ",
"                  1y5b4X2h5c j111g1g1g j1g j j1g j5c j1g5d5e5f                    ",
"                      5g5f i4 3S4b5h3e3e5h5h3e5h3e3l4O5b5i                        ",
"                            3y3x581F5j3w3w5k5 5l5m5n5n                            "};

