/* XPM */
static const char *AnimatorFrm_WxBitmapButton3_XPM[]={
/* AnimatorFrm_WxBitmapButton3 */
"41 41 245 2",
"      c None",
" 0    c #00B0D8",
" 1    c #00B0D7",
" 2    c #0096CB",
" 3    c #0092C9",
" 4    c #008CC6",
" 5    c #0092CA",
" 6    c #008EC7",
" 7    c #008DC7",
" 8    c #009ACD",
" 9    c #00A9D4",
" a    c #00B1D8",
" b    c #00A8D4",
" c    c #0090C8",
" d    c #278AC5",
" e    c #6C94CD",
" f    c #90ABD9",
" g    c #C4D1EB",
" h    c #DFE5F4",
" i    c #EDF0F8",
" j    c #C4D0EA",
" k    c #AABEE2",
" l    c #84A3D5",
" m    c #508EC8",
" n    c #009ECF",
" o    c #00A1D0",
" p    c #0088C4",
" q    c #789CD1",
" r    c #B7C7E7",
" s    c #91ADD9",
" t    c #AABEE3",
" u    c #C4D1EC",
" v    c #408DC7",
" w    c #00AFD7",
" x    c #789DD2",
" y    c #AABFE3",
" z    c #799ED2",
" A    c #317DC0",
" B    c #1878BD",
" C    c #1978BC",
" D    c #608FCA",
" E    c #9DB6DF",
" F    c #E0E6F5",
" G    c #268AC5",
" H    c #009CCF",
" I    c #009CCE",
" J    c #408DC8",
" K    c #DFE6F4",
" L    c #799FD2",
" M    c #307EBF",
" N    c #1679BD",
" O    c #1779BD",
" P    c #1579BD",
" Q    c #157ABD",
" R    c #137ABE",
" S    c #137ABD",
" T    c #1379BD",
" U    c #157ABE",
" V    c #1879BD",
" W    c #6090CA",
" X    c #AABFE2",
" Y    c #6D96CD",
" Z    c #0091C9",
" &    c #00AFD8",
"0     c #00A1D1",
"00    c #107BBD",
"01    c #1479BD",
"02    c #117ABE",
"03    c #137BBD",
"04    c #107ABD",
"05    c #0F7CBE",
"06    c #0F7BBE",
"07    c #0E7BBE",
"08    c #117BBE",
"09    c #518AC6",
"0a    c #C4D2EA",
"0b    c #84A5D5",
"0c    c #008AC6",
"0d    c #00AED7",
"0e    c #0099CD",
"0f    c #1878BC",
"0g    c #127ABD",
"0h    c #117CBE",
"0i    c #117DBE",
"0j    c #0E7CBE",
"0k    c #0E7DBE",
"0l    c #0F7DBF",
"0m    c #0F7DBE",
"0n    c #107CBF",
"0o    c #107DBF",
"0p    c #0089C5",
"0q    c #00ADD6",
"0r    c #117BBD",
"0s    c #127CBE",
"0t    c #0D7EBF",
"0u    c #0A7EBF",
"0v    c #077EC0",
"0w    c #077FC0",
"0x    c #087EBE",
"0y    c #057FBF",
"0z    c #057EBF",
"0A    c #087EBF",
"0B    c #077EBF",
"0C    c #0C7DBF",
"0D    c #008AC5",
"0E    c #00A5D3",
"0F    c #097DBF",
"0G    c #047FC0",
"0H    c #027FBF",
"0I    c #0380C0",
"0J    c #0080C0",
"0K    c #0481C1",
"0L    c #0480C0",
"0M    c #067FC0",
"0N    c #0095CB",
"0O    c #00ABD5",
"0P    c #0181C1",
"0Q    c #0381C1",
"0R    c #0082C1",
"0S    c #5093CA",
"0T    c #91B4DB",
"0U    c #9DBBDF",
"0V    c #C5D5EB",
"0W    c #C4D4EB",
"0X    c #6C9FD1",
"0Y    c #0081C1",
"0Z    c #0281C0",
"0&    c #0A7EC0",
"1     c #009BCD",
"10    c #0C7DBE",
"11    c #097EBF",
"12    c #0182C1",
"13    c #0083C2",
"14    c #6B9FD1",
"15    c #E0E7F4",
"16    c #6CA0D2",
"17    c #037FC0",
"18    c #00AAD5",
"19    c #037FBF",
"1a    c #2689C5",
"1b    c #AAC4E3",
"1c    c #91B6DD",
"1d    c #0083C1",
"1e    c #0081C0",
"1f    c #0097CB",
"1g    c #0084C2",
"1h    c #0085C3",
"1i    c #5D9BCF",
"1j    c #6AA1D2",
"1k    c #00A9D5",
"1l    c #0086C3",
"1m    c #5D9DD0",
"1n    c #D3DFF0",
"1o    c #009FCF",
"1p    c #00A2D1",
"1q    c #0085C2",
"1r    c #0087C4",
"1s    c #5D9ED0",
"1t    c #DFE8F5",
"1u    c #4E9BCE",
"1v    c #91B9DE",
"1w    c #0093C9",
"1x    c #0089C4",
"1y    c #5D9FD1",
"1z    c #91BBDF",
"1A    c #008DC6",
"1B    c #0087C3",
"1C    c #00A7D3",
"1D    c #0086C2",
"1E    c #008BC6",
"1F    c #5CA1D1",
"1G    c #91BBDE",
"1H    c #77AED8",
"1I    c #00A6D3",
"1J    c #008CC7",
"1K    c #3997CC",
"1L    c #91BCDF",
"1M    c #91BDDF",
"1N    c #91BDE0",
"1O    c #5BA5D3",
"1P    c #EEF3F9",
"1Q    c #0096CC",
"1R    c #008BC5",
"1S    c #008FC8",
"1T    c #0091C8",
"1U    c #5BA6D4",
"1V    c #E1EAF4",
"1W    c #ABCAE6",
"1X    c #0093CA",
"1Y    c #85B8DD",
"1Z    c #EEF2F8",
"1&    c #369BCE",
"2     c #0094CB",
"20    c #0094CA",
"21    c #59A8D4",
"22    c #EEF4F9",
"23    c #4AA1D1",
"24    c #0090C9",
"25    c #008FC7",
"26    c #B8D4EA",
"27    c #9FC7E5",
"28    c #0A9ACE",
"29    c #0095CA",
"2a    c #0097CC",
"2b    c #0098CC",
"2c    c #C6DCEE",
"2d    c #D4E4F2",
"2e    c #32A1D1",
"2f    c #0099CC",
"2g    c #C7DDEE",
"2h    c #EEF4FA",
"2i    c #009FD0",
"2j    c #0098CD",
"2k    c #008EC8",
"2l    c #009BCE",
"2m    c #A0CBE6",
"2n    c #C7DEEF",
"2o    c #C7DEEE",
"2p    c #9FCAE6",
"2q    c #009ACE",
"2r    c #009DCE",
"2s    c #009DCF",
"2t    c #92C6E4",
"2u    c #C6DEEE",
"2v    c #84C0E1",
"2w    c #009ED0",
"2x    c #00A0D1",
"2y    c #ACD3E9",
"2z    c #68B7DC",
"2A    c #00A0D0",
"2B    c #C6E0EF",
"2C    c #00A2D2",
"2D    c #00A3D2",
"2E    c #C7E1F0",
"2F    c #ADD6EA",
"2G    c #00A4D2",
"2H    c #C7E2F0",
"2I    c #00ACD6",
"2J    c #00A5D2",
"2K    c #00A8D5",
"2L    c #00ABD6",
"2M    c #00A7D4",
"2N    c #00A3D1",
"2O    c #00AED6",
"2P    c #00A4D3",
"                             0 1 2 3 4 3 5 6 7 8 9 a                              ",
"                       0 b c d e f g g h i j g k l m 4 n 1                        ",
"                   1 o p q r     h g s s s s t u     h f v 3 a                    ",
"                 w c x h   y z A B C C C C C C B B D E F   k G H 0                ",
"               I J u K L M N O P Q R R S R S R T U Q N V W X i Y Z &              ",
"           w0 00 h L N01 S02030405060506070606060808 S R R Q090a0b0c0d            ",
"        0d0e0f N P R0g05050h050i0j0k0l0k0k0m0m0m0i0n0o0h050802 T P V0p0q          ",
"         n0n010g0r0s050l0t0t0u0v0w0w0x0y0z0A0B0B0B0u0u0C0l050h0608 R010D0q        ",
"      0E0k03070s0o0C0F0w0G0H0I0J0J0K0K0K0L0L0I0L0J0J0I0M0v0u0C0l0n0508 S0N0q      ",
"    0O0p0r0h0i0C0u0G0H0J0L0P0Q0R0S0T0U0V0V0W0W0T0X0Y0Z0L0K0J0y0w0&0m05060u0       ",
"    1 070510110z0H0K120R0R131415                  15160R0R0Z0L0J170B0u0l0s p0O    ",
"  180R0m0u0G190L0Z0R13131a1b                          1c1d130R1e120J190B0C0o1     ",
"  1f0t0w0I0K0Z0R0R131g1h1i                              1j1g1d1d130R0K0J0G0u p 9  ",
"1k 40B0J0I0R0R1d1g1l1l1l1m                              1n1l1h1g1g130R0Z0K170B1o  ",
"1p0G0J0Q0R131g1h1q1l1r1r1s            1t1u1v              1r1r1l1h1q13131e0K0I c  ",
"1w0K0R131g1q1l1l1r p1x0D1y            1z1A1A              0p p1r1r1l1l1g130R0P1B1C",
" Z0R131d1h1D1l1r p0D0D1E1F            1G 61H              1E0D0p p p1l1h1g130R0P1I",
"0D131g1h1B1r p0D0c 41J 41K1G1G1L1M1M1N1O1L              1P 71E1E0D1x p1r1h1g130R1Q",
"1g1g1q1l p p0D1R1J 4 6 61S c c Z1T 31U1V                1W 61A 41E0D0p p1B1l1g130e",
"1d1q1B1r p0D1R1J 41S1S c Z1T1T 31X1Y                  1Z1&1S1S 6 4 40D0D p1B1l1g 6",
"1g1l1r0p0c 4 7 71S c c Z 51X2 2021                  2223 3 Z2425 61A 40D1x p1B1h1S",
"1q1B1x0D 4 7 71S c Z 31X2020 21Q26                2728201X 3 Z Z25 6 71E0D0D p1l1S",
"1l1x0D1R 7 71S c 31X1X201Q292a2b2c            2d2e1f 20N0N201X Z Z c1S 7 40D0p p0N",
" 60p1R 4 71S24 Z 3200N 22a2b0e2f2g          2h2i 82f2j2b 20N0N1X1X24 c 6 7 40D p 2",
" c1E 4 72k c Z1X2020 22b0e2f 82l2m2n2n2o2o2n2p I2l2q 82f2j2a 2201X 3 Z1S 6 41R0D I",
"1X1E 42k c Z 31w0N2a2a0e 81 2l H2r2s n2s2s n n n I I2l 80e2b 2 2201X 3 c1S 61J 42r",
"2a 4 625 Z1T1X20 22a2b 82l I2r n2i2i2t2u2o2v2i n2w2r2s I2l0e2b2a1Q201w1T25 61A Z  ",
" I 61S c Z1w201Q2a2b 82l I2r2w2i2x2y        2z2A2A2i n2s I 80e2j 20N1w 3 c1S1A20  ",
"  201S c 320 22a2j 81 2s n2w2A0 1p          2B0 0 2A2i n2r I 80e2a290N1X1T c1S 8  ",
"  1f c1T1X20 22j0e2l I2s2w2i1p2C2D          2B2D2D0 0 2i n I2l 82f2a 220 5 c20    ",
"    1X Z2 1Q1Q0e 82l2s2w2A0 1p2D0E2E        2F0E2G1p0 2A2i n I1 2f2b 2201X1T 2    ",
"    0N1w1X 22b0e2l H2s1o0 1p2D0E1I0O2H    2F2I1I1I2G2D1p2A2i n2l2q2j2a0N1X1X      ",
"      200N 22b0e 82s n2i0 1p2G2J1C b1k1k1k1k1k2K1I0E2G1p2A1o n I2l2b 20N1X20      ",
"      1X202a2b2q2l2s2i0 2D2G0E1C b180O2I2L0O18 92M1C2G2D0 2i2w2s2l0e2a0N 3        ",
"         Z0N2f 82l2s2A0 1p2G1I b1k0O2I0q0q2I2L18 b2M0E2D1p2x2i2s1  82b Z          ",
"          1S0N 8 I n2i0 2D0E2M b180O0q w &0d2I18 9 b0E2N2D2A2i n2l2j 3            ",
"             71X H2s2i0 2D2G2M2K1k0O0q0d 12O2I18 92M1I2G2D2A2i2r2a1S              ",
"              1E1S 81o0 1p0E1I2M182L2I0d0q0q2I18 b2M1I2P1p2x n201E                ",
"                   p1X2i1p2N1I2M b182L2I2I2I0O18 b1C2J2D1p 21A0p                  ",
"                      1h Z2s0E1C2M 91k2L181818 92M1I2A 21E1D                      ",
"                          0R1r Z0N2r n n2w2w n2b0N1J0R                            "};

