/* XPM */
static const char *AnimatorFrm_WxBitmapButton1_XPM[]={
/* AnimatorFrm_WxBitmapButton1 */
"41 41 442 2",
"      c None",
" 0    c #DFE0E1",
" 1    c #E0E1E2",
" 2    c #C2C4C6",
" 3    c #B7B9BB",
" 4    c #A2A4A7",
" 5    c #A3A5A7",
" 6    c #B2B4B6",
" 7    c #B8BABC",
" 8    c #DCDDDE",
" 9    c #DDDEDF",
" a    c #B9BBBD",
" b    c #9EA0A2",
" c    c #7E7F82",
" d    c #77787B",
" e    c #76787B",
" f    c #77797B",
" g    c #76787A",
" h    c #97999B",
" i    c #B5B7B9",
" j    c #D3D4D6",
" k    c #DCDDDF",
" l    c #D8DADB",
" m    c #D9DADC",
" n    c #BBBDBF",
" o    c #949698",
" p    c #898B8E",
" q    c #898B8D",
" r    c #8A8C8E",
" s    c #8E9093",
" t    c #B2B4B7",
" u    c #D2D3D5",
" v    c #D6D8D9",
" w    c #C7C9CB",
" x    c #A4A6A9",
" y    c #9C9EA1",
" z    c #9D9FA1",
" A    c #9C9EA0",
" B    c #9C9FA1",
" C    c #A0A2A5",
" D    c #BDBFC1",
" E    c #C4C6C8",
" F    c #B0B2B5",
" G    c #B0B2B4",
" H    c #AAACAE",
" I    c #9FA1A4",
" J    c #7B7979",
" K    c #625E5D",
" L    c #6E6A6A",
" M    c #9D9FA2",
" N    c #A0A2A4",
" O    c #A5A8AA",
" P    c #AEB0B2",
" Q    c #D0D2D3",
" R    c #D2D4D5",
" S    c #CFD1D2",
" T    c #CBCCCE",
" U    c #C5C6C8",
" V    c #C5C7C9",
" W    c #BFC0C3",
" X    c #ACAEB0",
" Y    c #585352",
" Z    c #221B19",
" &    c #000000",
"0     c #18110F",
"00    c #413B39",
"01    c #959496",
"02    c #CFD0D2",
"03    c #CED0D2",
"04    c #D8D9DB",
"05    c #D5D7D8",
"06    c #A6A5A6",
"07    c #393230",
"08    c #251E1C",
"09    c #8E8B8C",
"0a    c #CED0D1",
"0b    c #D9DADB",
"0c    c #D1D2D4",
"0d    c #CCCED0",
"0e    c #C9CBCD",
"0f    c #D7D9DA",
"0g    c #E1E2E3",
"0h    c #726D6C",
"0i    c #3C3634",
"0j    c #DFE1E2",
"0k    c #CCCDCF",
"0l    c #C9CBCC",
"0m    c #4B4442",
"0n    c #040000",
"0o    c #060000",
"0p    c #070000",
"0q    c #050000",
"0r    c #020000",
"0s    c #120B07",
"0t    c #ABAAAA",
"0u    c #C9CACC",
"0v    c #C6C8CA",
"0w    c #2B2523",
"0x    c #0A0100",
"0y    c #0E0503",
"0z    c #110907",
"0A    c #120A09",
"0B    c #140C0B",
"0C    c #130A09",
"0D    c #120A08",
"0E    c #100706",
"0F    c #0D0302",
"0G    c #A7A6A7",
"0H    c #AFB2B4",
"0I    c #B9BBBE",
"0J    c #C3C4C7",
"0K    c #BFC1C3",
"0L    c #A0A3A5",
"0M    c #989A9D",
"0N    c #4C4644",
"0O    c #0A0000",
"0P    c #100806",
"0Q    c #150D0C",
"0R    c #191211",
"0S    c #1B1413",
"0T    c #1D1716",
"0U    c #1D1817",
"0V    c #1D1717",
"0W    c #1C1616",
"0X    c #1A1413",
"0Y    c #181110",
"0Z    c #130C0A",
"0&    c #150E0B",
"1     c #AAACAF",
"10    c #989A9C",
"11    c #9A9C9F",
"12    c #B8BABD",
"13    c #ABAEB0",
"14    c #828486",
"15    c #858689",
"16    c #787474",
"17    c #0E0403",
"18    c #140D0B",
"19    c #1A1312",
"1a    c #1E1817",
"1b    c #221D1C",
"1c    c #241F1E",
"1d    c #252020",
"1e    c #262221",
"1f    c #252120",
"1g    c #231D1D",
"1h    c #201B1A",
"1i    c #1C1615",
"1j    c #17100F",
"1k    c #120907",
"1l    c #090000",
"1m    c #3E3836",
"1n    c #8B8D90",
"1o    c #818386",
"1p    c #828487",
"1q    c #96989B",
"1r    c #BCBEC0",
"1s    c #7D7F82",
"1t    c #6B6D6F",
"1u    c #6B6C6F",
"1v    c #87898C",
"1w    c #160F0E",
"1x    c #292424",
"1y    c #2C2727",
"1z    c #2D2929",
"1A    c #2E2A2A",
"1B    c #2B2726",
"1C    c #272323",
"1D    c #201A1A",
"1E    c #130B0A",
"1F    c #797878",
"1G    c #6B6C6E",
"1H    c #A9ABAE",
"1I    c #565659",
"1J    c #565658",
"1K    c #5A5B5D",
"1L    c #46413F",
"1M    c #0D0402",
"1N    c #150E0C",
"1O    c #231E1D",
"1P    c #282424",
"1Q    c #888585",
"1R    c #8A8888",
"1S    c #3F3C3D",
"1T    c #333030",
"1U    c #343131",
"1V    c #343031",
"1W    c #302D2D",
"1X    c #2B2727",
"1Y    c #080000",
"1Z    c #0D0502",
"1&    c #6F7173",
"2     c #565759",
"20    c #555658",
"21    c #8C8E90",
"22    c #B5B7BA",
"23    c #8C8E91",
"24    c #67686B",
"25    c #67696B",
"26    c #67686A",
"27    c #8C8A8B",
"28    c #EBEAEA",
"29    c #7C7B7B",
"2a    c #3A3838",
"2b    c #3A3738",
"2c    c #383636",
"2d    c #373435",
"2e    c #333031",
"2f    c #302C2C",
"2g    c #262222",
"2h    c #191312",
"2i    c #0F0605",
"2j    c #676666",
"2k    c #68696B",
"2l    c #75777A",
"2m    c #B3B5B7",
"2n    c #7E8082",
"2o    c #7E8083",
"2p    c #636060",
"2q    c #030000",
"2r    c #110806",
"2s    c #211C1B",
"2t    c #2D2A2A",
"2u    c #322F30",
"2v    c #918F90",
"2w    c #D3D2D3",
"2x    c #6B6B6C",
"2y    c #3E3C3D",
"2z    c #3C393A",
"2A    c #393737",
"2B    c #363333",
"2C    c #312D2E",
"2D    c #292221",
"2E    c #808284",
"2F    c #A8AAAD",
"2G    c #ADAFB1",
"2H    c #959799",
"2I    c #949699",
"2J    c #95979A",
"2K    c #37312F",
"2L    c #24201F",
"2M    c #322F2F",
"2N    c #939293",
"2O    c #AFAFB0",
"2P    c #585758",
"2Q    c #3D3B3C",
"2R    c #2F2C2C",
"2S    c #0E0504",
"2T    c #010000",
"2U    c #97999C",
"2V    c #949799",
"2W    c #ABADAF",
"2X    c #ADAFB2",
"2Y    c #ACAEB1",
"2Z    c #0F0805",
"2&    c #282323",
"3     c #2E2B2B",
"30    c #353232",
"31    c #969596",
"32    c #EFEFEF",
"33    c #979798",
"34    c #484748",
"35    c #1C1716",
"36    c #130B09",
"37    c #C3C5C7",
"38    c #221D1D",
"39    c #2B2626",
"3a    c #3C3A3B",
"3b    c #989799",
"3c    c #DEDEDE",
"3d    c #7D7C7D",
"3e    c #2E2A2B",
"3f    c #1F1919",
"3g    c #75706F",
"3h    c #A7A9AB",
"3i    c #B4B6B8",
"3j    c #B3B5B8",
"3k    c #B4B6B9",
"3l    c #1B1514",
"3m    c #98989A",
"3n    c #C1C0C0",
"3o    c #535050",
"3p    c #282423",
"3q    c #0B0100",
"3r    c #706C6B",
"3s    c #AFB1B3",
"3t    c #9B9DA0",
"3u    c #120908",
"3v    c #25201F",
"3w    c #99999B",
"3x    c #4D4949",
"3y    c #211B1B",
"3z    c #0B0201",
"3A    c #64605F",
"3B    c #87898B",
"3C    c #848688",
"3D    c #110807",
"3E    c #241F1F",
"3F    c #2C2828",
"3G    c #393637",
"3H    c #99999A",
"3I    c #B4B3B3",
"3J    c #484545",
"3K    c #0B0200",
"3L    c #545050",
"3M    c #8D8F92",
"3N    c #727476",
"3O    c #727376",
"3P    c #6E6F72",
"3Q    c #231E1E",
"3R    c #2A2626",
"3S    c #312E2E",
"3T    c #989899",
"3U    c #D1D1D1",
"3V    c #686768",
"3W    c #1F1A19",
"3X    c #170F0E",
"3Y    c #4E4B4B",
"3Z    c #848689",
"3&    c #8B8D8F",
"4     c #666769",
"40    c #0F0704",
"41    c #3A3839",
"42    c #EEEEEE",
"43    c #8C8C8D",
"44    c #332F30",
"45    c #140C0A",
"46    c #717275",
"47    c #656769",
"48    c #6E7072",
"49    c #6F7072",
"4a    c #707274",
"4b    c #3E3837",
"4c    c #262121",
"4d    c #373535",
"4e    c #949394",
"4f    c #A5A5A6",
"4g    c #4D4C4D",
"4h    c #3F3D3E",
"4i    c #393738",
"4j    c #353233",
"4k    c #292525",
"4l    c #7D7E81",
"4m    c #6F7073",
"4n    c #919396",
"4o    c #7D7F81",
"4p    c #78797C",
"4q    c #757171",
"4r    c #908F8F",
"4s    c #C6C6C7",
"4t    c #3F3E3E",
"4u    c #363434",
"4v    c #1E1918",
"4w    c #4B4543",
"4x    c #7A7C7E",
"4y    c #8F9193",
"4z    c #7F8184",
"4A    c #090100",
"4B    c #140D0C",
"4C    c #8D8B8C",
"4D    c #DEDDDE",
"4E    c #676667",
"4F    c #3B393A",
"4G    c #272322",
"4H    c #8E8B8B",
"4I    c #7F8183",
"4J    c #888A8D",
"4K    c #5F5856",
"4L    c #7D7A7A",
"4M    c #8B8989",
"4N    c #363334",
"4O    c #272222",
"4P    c #1B1414",
"4Q    c #322C2A",
"4R    c #8A8C8F",
"4S    c #8E9092",
"4T    c #17100E",
"4U    c #939191",
"4V    c #807D7C",
"4W    c #514A48",
"4X    c #8A8B8E",
"4Y    c #86888B",
"4Z    c #85878A",
"4&    c #86888A",
"5     c #909294",
"50    c #57514F",
"51    c #0C0301",
"52    c #201A19",
"53    c #2D2624",
"54    c #838588",
"55    c #808285",
"56    c #8F9194",
"57    c #0C0302",
"58    c #908F90",
"59    c #818385",
"5a    c #8D8F91",
"5b    c #524C4A",
"5c    c #2A2422",
"5d    c #7B7D7F",
"5e    c #797B7E",
"5f    c #7A7B7E",
"5g    c #838587",
"5h    c #726F6F",
"5i    c #47413F",
"5j    c #797B7D",
"5k    c #77797C",
"5l    c #76777A",
"5m    c #5A5452",
"5n    c #46403D",
"5o    c #8E8E8F",
"5p    c #787A7C",
"5q    c #757679",
"5r    c #737577",
"5s    c #908B8B",
"5t    c #413937",
"5u    c #1D1715",
"5v    c #110906",
"5w    c #352E2C",
"5x    c #635C5A",
"5y    c #9B9A9B",
"5z    c #737477",
"5A    c #757779",
"5B    c #717375",
"5C    c #AEB0B3",
"5D    c #C1C2C5",
"5E    c #A6A8AA",
"5F    c #747578",
"5G    c #797A7D",
"5H    c #787A7D",
"5I    c #6C6D70",
"5J    c #7C7E80",
"5K    c #838487",
"5L    c #6D6E71",
"5M    c #6A6B6D",
"5N    c #696A6C",
"5O    c #707174",
"5P    c #858789",
"5Q    c #696A6D",
"5R    c #6A6B6E",
"5S    c #66686A",
"5T    c #7C7E81",
"5U    c #656669",
"                             0 1 2 3 4 4 5 5 4 6 7 1 0                            ",
"                       8 9 a b c d d e d f d e g d g h i j k                      ",
"                   l m n o p q p r p p p p p p r r p p p s t u m                  ",
"                 v w x y z A y y y y y A y y B y y y y y y A C D v                ",
"               j E F G F F G G G H 4 I J K L M N O P G F F G F G n Q R            ",
"             S T U E V E E W X Y Z & & & & & & &0 0001 a V V V E E w0202          ",
"          0304 l l m m050607 & & & & & & & & & & & & &08090a0b m0b m m0c0d        ",
"        0e0f0g0g0g0g0b0h & & & & & & & & & & & & & & & & &0i0a0g0g0g0g0j0k        ",
"       V w0e0e0e0l V0m & & & & & & &0n0o0p0o0q0r & & & & & &0s0t0e0e0u0l w0v      ",
"       D G F G G a0w & & & & &0n0x0y0z0A0B0C0D0E0F0p0r & & & &0o0G G F G0H0I0J    ",
"    0K0L0M0M0M I0N & & & &0r0O0P0Q0R0S0T0U0V0W0X0Y0Z0y0o & & & &0&1 0M0M101112    ",
"    131414141516 & & & &0n1718191a1b1c1d1e1f1f1g1h1i1j1k1l & & & &1m1n1o1p1o1q1r  ",
"  0I1s1t1u1t1v & & & &0n0y1w0T1b1f1x1y1z1A1A1z1B1C1c1D0X1E0O & & & &1F1t1G1u1t1H  ",
"   I1I1J1J1K1L & & &0r1M1N0T1O1P1Q1R1S1T1U1U1V1W1A1X1e1D190D1Y & & &1Z1&2 202 2122",
" 623242526 d & & & &0O0Z0W1O1P1A27  28292a2b2c2d2e2f1X2g1h2h2i0n & & &2j2k2k262l2m",
" G r2n2o c2p & & &2q2r2h2s1P2t2u2v      2w2x2y2z2A2B2C1X1d1a0Q0x & & &2D2E2n2o2o2F",
"2G2H2I2I2J2K & & &1l0B0V2L1X2M2d2N          2O2P2Q2b1U2R1x1b2h2S2q & &2T2U2H2J2V x",
"2W2X2Y2G2X2Z & & &0F1j1h2&3 302b31            3233342c1T1X1d35360o & & & X2Y2G2X2W",
"0H3737370K & & &0r2i0X38392C2d3a3b                3c3d303e1C3f0Q0x & & &3g373737 3",
"3h3i3j3i3k & & &0n0z3l2L1X1T2A2y3m                    3n3o3p1D1j3q & & &3r2m2m2m3s",
" I M z M3t & & &2q3u0T3v1z1T2A2y3w                        3x3y0Y3z & & &3A y B z b",
"2U1v3B1v3C & & &0n3D3l3E3F1T3G2y3H                    3I3J3p1h1j3K & & &3L3B1v3B3M",
" s3N3O3O3P & & &0r0E0X3Q3R3S2d3a3T                3U3V2B3 1C3W3X3K & & &3Y3O3O3N3Z",
"3&4 4 4 1t40 & & &170Y1h1x2R2B4131            42432Q2c441z1d0V450p & & &46474 472o",
"2V483P494a4b & & &1l0Q0V4c1z1T4d4e          4f4g4h4i4j2f4k380X0P2q & &2T4l484m49 q",
"4n4o f4p f4q & & &0n2r191b1x3 1T4r      4s2P4t3a4i4u3S3F4c4v1w3q & & &4w4x f f f s",
"4y1v4z4z2E A4A & & &0x4B0T1c4k3e4C  4D4E4F412a2c302C1z4G1h0X3D0q & & &4H4z4I4z1p s",
"  3& q q4J s4K & & &2q0y1j1a3E1x4L4M1T304N4j2e2M2R3F4O1b4P0Z1l & & &4Q A q4J q4R3M",
"   p233M4S s134T & & &0q2i1j0V1O2g3R1z3 3 1A1z1X1P1d1h4P0Q3K & & & &4U3M s3M3M q  ",
"    3B p4R4R4R4V & & & &0o2S0Q0S3W381d1C4G4G4c3E2s0V2h1E0x0r & & &4W2V4R4X r q4Y  ",
"    1p4Z4Y4&4&5 50 & & & &0n510z1j4P0T3f3W521a1i0R180E1l & & & &53114Y4Y4&4Z54    ",
"      55141414145650 & & & & &0o573D1E0Q0Q0Q183u2S0x2q & & & &0q581p141p1o5955    ",
"      4o1s2o2o c2n5a5b & & & & & &2q0o0p1l1l0p0o2T & & & & &5c112n2o2n2o2n1s      ",
"        4x5d5e4x5f4x5g5h0q & & & & & & & & & & & & & & & &5i1n5e4x5j4x4x4x        ",
"          5k e g g5l g g0M5m & & & & & & & & & & & & &5n5o2n g2l g5l5l f5p        ",
"            5q5r3O3O3N3N3O f3t5s5t5u & & & & &5v5w5x5y1s3N3N3N3N5z3N5q5A          ",
"              5B4a4m491&494m4m4m2n z5C 7 R5D P5E4Z1&4m1&1&4m4m1&1&46              ",
"                1&1&5F5p5G5H5p5p5p5G5p5p5p5p5p5H5p5p5p5p5p5H4p4a49                ",
"                    5I3O5J141p1p141p5K1p1p5g1p5g5g5g1p5g4I g5L1t                  ",
"                      5M5N5O5d5P5a3M5a3M3M3M3M3M5a4R c5q5Q5R                      ",
"                            5S4 5R5q d5T4o4o4x5r3P5U26                            "};

